<svg xmlns="http://www.w3.org/2000/svg" width="84.362" height="33.871" viewBox="0 0 84.362 33.871"><path d="M79.331,2.159C76.253,1.906,62.91.72,42.194.72,21.347.72,8.522,1.909,5.207,2.142A5.235,5.235,0,0,0,0,7.348V27.963a5.265,5.265,0,0,0,5.207,5.206c4.038.254,16.284,1.422,36.988,1.422,20.6,0,33.713-1.2,36.961-1.422,3.153-.212,5.207-2.331,5.207-5.206V7.348a5.222,5.222,0,0,0-5.031-5.189M77.394,24.465a5.212,5.212,0,0,1-5.212,5.211H12.206a5.212,5.212,0,0,1-5.211-5.211v-13.6a5.212,5.212,0,0,1,5.211-5.211H72.182a5.212,5.212,0,0,1,5.212,5.211Z" transform="translate(0 -0.72)" fill-rule="evenodd"/></svg>