<svg width="127" height="127" viewBox="0 0 127 127" fill="none" xmlns="http://www.w3.org/2000/svg">
<rect x="1.5" y="1.5" width="124" height="124" rx="62" fill="white" stroke="#A4A4A4" stroke-width="3"/>
<path fill-rule="evenodd" clip-rule="evenodd" d="M101.331 31.439C98.253 31.186 84.91 30 64.194 30C43.347 30 30.522 31.189 27.207 31.422C25.8285 31.4294 24.5085 31.9802 23.5336 32.9549C22.5587 33.9296 22.0076 35.2495 22 36.628V57.243C22.0153 58.6191 22.5689 59.9346 23.5421 60.9076C24.5153 61.8806 25.8309 62.4339 27.207 62.449C31.245 62.703 43.491 63.871 64.195 63.871C84.795 63.871 97.908 62.671 101.156 62.449C104.309 62.237 106.363 60.118 106.363 57.243V36.628C106.355 35.2812 105.828 33.9895 104.89 33.0225C103.953 32.0556 102.677 31.4882 101.331 31.439ZM99.394 53.745C99.3937 55.1271 98.8445 56.4526 97.8671 57.4298C96.8897 58.407 95.5641 58.956 94.182 58.956H34.206C32.824 58.9557 31.4988 58.4066 30.5216 57.4294C29.5444 56.4522 28.9953 55.127 28.995 53.745V40.145C28.9953 38.763 29.5444 37.4378 30.5216 36.4606C31.4988 35.4834 32.824 34.9343 34.206 34.934H94.182C95.5641 34.934 96.8897 35.483 97.8671 36.4602C98.8445 37.4374 99.3937 38.7629 99.394 40.145V53.745Z" fill="black"/>
<path d="M20.0005 83.3561C19.9468 76.6523 24.3664 70.3982 32.5956 70.3315C40.0117 70.272 44.9123 75.5447 44.9667 82.313C45.0269 89.7944 40.2475 95.6299 32.4107 95.7256C23.9588 95.8257 20.0513 89.1851 20.007 83.3561M41.815 83.1145C41.7613 76.4412 37.3946 72.2051 32.0342 72.2479C26.5142 72.2921 23.1123 76.6842 23.1631 82.6205C23.2494 89.3599 27.2976 93.8208 33.0098 93.7744C36.8615 93.7432 41.8781 91.0072 41.815 83.1116" fill="black"/>
<path d="M63.4213 70.8197C63.438 72.9029 63.4097 77.8557 63.4097 77.8557C63.4097 77.8557 62.7627 78.1683 62.6582 77.9282C61.5781 75.3067 60.6272 71.9331 56.5652 71.9657C56.0103 71.9645 55.4606 72.0735 54.9481 72.2864C54.4356 72.4992 53.9705 72.8117 53.5797 73.2057C53.1889 73.5997 52.8802 74.0673 52.6715 74.5815C52.4628 75.0957 52.3582 75.6462 52.3639 76.2011C52.4067 81.4614 64.2148 81.9996 64.2148 88.813C64.2148 90.5538 62.0467 95.2179 56.1713 95.265C54.2244 95.2803 49.7432 94.3946 49.4661 93.9529C49.2238 93.5786 49.0911 89.7886 49.1099 87.8758C49.1099 87.8758 49.6177 87.5646 49.791 87.6995C50.5621 90.0838 52.0629 94.0341 56.1271 94.0015C59.5761 93.9739 61.5716 91.4627 61.5636 90.474C61.502 82.7547 49.5335 83.8355 49.5335 76.9098C49.5335 74.4849 52.0121 70.7442 57.1012 70.7007C58.3989 70.6898 60.2464 71.051 61.6819 71.2085C61.9024 71.2113 62.1197 71.1549 62.3111 71.0452C62.5025 70.9355 62.6609 70.7764 62.7699 70.5846C63.1464 70.6158 63.4227 70.6818 63.4227 70.8182" fill="black"/>
<path d="M70.3557 80.1108C70.4099 76.9866 70.2766 73.8619 69.9568 70.7537C70.3782 70.7834 70.9614 70.8102 71.414 70.8066C72.6123 70.7979 74.2001 70.6557 75.8177 70.6427C81.3232 70.5984 82.7086 73.8582 82.7297 76.2548C82.7359 77.323 82.4543 78.3731 81.9145 79.2949C81.3747 80.2167 80.5967 80.9761 79.6621 81.4933C82.3895 82.2811 84.9957 84.2686 85.0254 87.9599C85.0559 91.6847 82.396 95.2687 76.6642 95.3144C74.4294 95.3325 72.8734 95.1504 72.1285 95.1243C71.5021 95.1077 70.8753 95.1234 70.2505 95.1715C70.3695 93.8752 70.4362 90.0214 70.4021 85.81L70.3557 80.1108ZM73.0824 80.8985C73.0825 80.9362 73.0956 80.9726 73.1193 81.0017C73.1431 81.0309 73.1761 81.0511 73.2129 81.0588C73.8287 81.0864 76.4524 81.098 76.9703 81.0937C77.4026 81.1414 77.8378 81.0348 78.199 80.7926C78.814 80.3549 79.3127 79.7735 79.6516 79.0991C79.9905 78.4246 80.1595 77.6775 80.1437 76.9228C80.1213 74.1665 78.4225 72.3371 75.1518 72.3632C74.4688 72.3465 73.7858 72.3951 73.1121 72.5083C73.0787 72.5277 73.0517 72.5566 73.0347 72.5914C73.0176 72.6261 73.0113 72.6651 73.0163 72.7034L73.0824 80.8985ZM79.9414 84.0495C78.8132 83.2534 77.4576 82.844 76.0774 82.8824C75.0408 82.8266 73.519 82.8389 73.2274 82.873C73.1302 82.9063 73.0983 82.939 73.099 83.0035L73.1215 85.7889C73.1665 91.3916 73.2427 92.7836 73.3391 92.912C73.6663 93.2326 74.9349 93.5467 76.7773 93.5322C79.5337 93.5097 82.1406 91.9023 82.1124 88.3719C82.1481 87.5257 81.967 86.6844 81.5861 85.9279C81.2052 85.1714 80.6373 84.5248 79.9363 84.0495" fill="black"/>
<path d="M90.8515 80.1986C90.8138 75.5439 90.7195 71.8664 90.3851 70.795C90.8829 70.843 91.3831 70.8606 91.883 70.848C92.5358 70.8422 95.0398 70.6913 96.1786 70.6826C98.3924 70.6644 100.478 70.9415 101.884 71.8083C102.785 72.3717 103.528 73.1553 104.042 74.0851C104.557 75.0149 104.826 76.0604 104.825 77.123C104.848 79.952 103.532 82.2448 100.908 84.0865C103.011 86.8364 105.415 90.107 107.681 92.4956C108.698 93.7922 110.179 94.6444 111.811 94.8733C111.838 94.8759 111.865 94.8839 111.89 94.8969C111.914 94.9099 111.936 94.9277 111.953 94.9492C111.971 94.9707 111.984 94.9954 111.992 95.022C111.999 95.0486 112.002 95.0765 111.999 95.104C111.999 95.2244 111.941 95.3267 111.803 95.3267L108.725 95.3216C108.014 95.2886 107.316 95.1128 106.674 94.8048C106.032 94.4967 105.458 94.0627 104.987 93.5285C103.183 91.7514 100.119 87.2839 98.6042 85.2783C98.557 85.2091 98.4936 85.1525 98.4195 85.1134C98.3454 85.0744 98.2629 85.054 98.1791 85.0541C97.4965 85.0919 95.1522 85.0781 93.7196 85.0541C93.6224 85.0541 93.6224 85.1202 93.6238 85.25L93.6355 86.2626C93.6688 90.3638 93.827 93.8789 93.9981 95.31C93.5229 95.2525 93.0437 95.2346 92.5655 95.2563C91.9239 95.2552 91.2827 95.2927 90.6455 95.3688C90.8895 92.228 90.9728 89.0768 90.895 85.9275L90.8515 80.1986ZM93.6079 82.8454C93.6079 83.0413 93.642 83.1058 93.708 83.1356C95.0367 83.2995 96.3758 83.3649 97.7142 83.3314C98.3698 83.397 99.0295 83.2549 99.6001 82.9252C100.376 82.3469 101.001 81.5913 101.425 80.7215C101.848 79.8517 102.057 78.8932 102.034 77.926C102.005 74.4784 99.7734 72.3792 96.0306 72.4082C95.2362 72.3923 94.4419 72.4422 93.6558 72.5576C93.5259 72.591 93.5267 72.6563 93.5274 72.7868L93.6079 82.8454Z" fill="black"/>
</svg>